<?xml version="1.0" encoding="UTF-8"?>
<svg id="Layer_2" xmlns="http://www.w3.org/2000/svg" xmlns:xlink="http://www.w3.org/1999/xlink" viewBox="0 0 387.39 233.04">
  <defs>
    <style>
      .cls-1 {
        fill: url(#linear-gradient-5);
      }

      .cls-2 {
        fill: url(#linear-gradient-6);
      }

      .cls-3 {
        fill: url(#linear-gradient-4);
      }

      .cls-4 {
        fill: url(#linear-gradient-3);
      }

      .cls-5 {
        fill: url(#linear-gradient-2);
      }

      .cls-6 {
        fill: #231f20;
      }

      .cls-7 {
        fill: url(#linear-gradient);
      }

      .cls-8 {
        fill: #fff;
      }
    </style>
    <linearGradient id="linear-gradient" x1="0" y1="211.37" x2="385.99" y2="211.37" gradientUnits="userSpaceOnUse">
      <stop offset="0" stop-color="#c49a2f"/>
      <stop offset=".12" stop-color="#b1872d"/>
      <stop offset=".31" stop-color="#faf394"/>
      <stop offset=".41" stop-color="#e5d06c"/>
      <stop offset=".56" stop-color="#c49a2f"/>
      <stop offset=".59" stop-color="#cda941"/>
      <stop offset=".65" stop-color="#e0c964"/>
      <stop offset=".7" stop-color="#eee07e"/>
      <stop offset=".75" stop-color="#f7ee8e"/>
      <stop offset=".79" stop-color="#faf394"/>
      <stop offset=".88" stop-color="#b1872d"/>
      <stop offset="1" stop-color="#c49a2f"/>
    </linearGradient>
    <linearGradient id="linear-gradient-2" x1="6.1" y1="78.23" x2="384.06" y2="78.23" xlink:href="#linear-gradient"/>
    <linearGradient id="linear-gradient-3" x1="188.3" y1="6.31" x2="202.23" y2="6.31" xlink:href="#linear-gradient"/>
    <linearGradient id="linear-gradient-4" x1="198.16" y1="11.44" x2="214.53" y2="11.44" xlink:href="#linear-gradient"/>
    <linearGradient id="linear-gradient-5" x1="176.12" y1="11.73" x2="192.38" y2="11.73" xlink:href="#linear-gradient"/>
    <linearGradient id="linear-gradient-6" x1="2.72" y1="230.12" x2="387.39" y2="230.12" xlink:href="#linear-gradient"/>
  </defs>
  <g id="Layer_1-2" data-name="Layer_1">
    <g>
      <path class="cls-8" d="M5.05,184.95v-6.54l19.44-27.82h9.69v27.11h5.23v7.25h-5.23v8.44h-8.32v-8.44H5.05ZM26.39,159.51l-12.19,18.19h12.19v-18.19Z"/>
      <path class="cls-8" d="M109.59,154.46c3.31,1.71,5.86,4.13,7.67,7.28,1.8,3.15,2.71,6.81,2.71,10.97s-.9,7.8-2.71,10.91c-1.8,3.11-4.36,5.52-7.67,7.22-3.31,1.71-7.14,2.56-11.5,2.56h-14.51v-41.5h14.51c4.36,0,8.19.85,11.5,2.56ZM107.9,182.75c2.38-2.38,3.57-5.73,3.57-10.05s-1.19-7.7-3.57-10.14c-2.38-2.44-5.75-3.66-10.11-3.66h-5.89v27.41h5.89c4.36,0,7.73-1.19,10.11-3.57Z"/>
      <path class="cls-8" d="M159.5,193.4l-9.16-16.17h-3.92v16.17h-8.32v-41.5h15.58c3.21,0,5.94.56,8.2,1.69,2.26,1.13,3.95,2.66,5.08,4.58,1.13,1.92,1.69,4.07,1.69,6.45,0,2.74-.79,5.2-2.38,7.4-1.59,2.2-3.94,3.71-7.07,4.55l9.93,16.82h-9.63ZM146.42,170.98h6.96c2.26,0,3.94-.54,5.05-1.63,1.11-1.09,1.66-2.61,1.66-4.55s-.56-3.38-1.66-4.43c-1.11-1.05-2.79-1.58-5.05-1.58h-6.96v12.19Z"/>
      <path class="cls-8" d="M196.42,158.62v10.4h13.97v6.6h-13.97v11h15.75v6.78h-24.08v-41.56h24.08v6.78h-15.75Z"/>
      <path class="cls-8" d="M257.06,185.49h-16.53l-2.73,7.91h-8.74l14.92-41.56h9.69l14.92,41.56h-8.8l-2.73-7.91ZM254.8,178.83l-6-17.36-6.01,17.36h12.01Z"/>
      <path class="cls-8" d="M331.31,151.9v41.5h-8.32v-26.99l-11.12,26.99h-6.3l-11.18-26.99v26.99h-8.32v-41.5h9.45l13.2,30.85,13.2-30.85h9.39Z"/>
      <path class="cls-8" d="M357.91,192.33c-2.32-.99-4.15-2.42-5.5-4.28-1.35-1.86-2.04-4.06-2.08-6.6h8.92c.12,1.7.72,3.05,1.81,4.04,1.09.99,2.59,1.49,4.49,1.49s3.47-.46,4.58-1.4c1.11-.93,1.66-2.15,1.66-3.66,0-1.23-.38-2.24-1.13-3.03-.75-.79-1.69-1.42-2.82-1.87-1.13-.46-2.69-.96-4.67-1.52-2.7-.79-4.88-1.58-6.57-2.35-1.68-.77-3.13-1.94-4.34-3.51s-1.81-3.66-1.81-6.27c0-2.46.61-4.6,1.84-6.42,1.23-1.82,2.95-3.22,5.17-4.19,2.22-.97,4.76-1.46,7.61-1.46,4.28,0,7.76,1.04,10.43,3.12,2.68,2.08,4.15,4.98,4.43,8.71h-9.16c-.08-1.43-.68-2.61-1.81-3.54-1.13-.93-2.63-1.4-4.49-1.4-1.62,0-2.92.42-3.89,1.25-.97.83-1.46,2.04-1.46,3.63,0,1.11.37,2.03,1.1,2.76.73.73,1.64,1.33,2.73,1.78,1.09.46,2.62.98,4.61,1.58,2.7.79,4.89,1.59,6.6,2.38,1.7.79,3.17,1.98,4.4,3.57s1.84,3.67,1.84,6.24c0,2.22-.58,4.28-1.72,6.18s-2.83,3.42-5.05,4.55c-2.22,1.13-4.86,1.69-7.91,1.69-2.89,0-5.5-.5-7.82-1.49Z"/>
      <path class="cls-7" d="M12.63,218.79h-2.96l-6.71-10.14v10.14H0v-14.79h2.96l6.71,10.16v-10.16h2.96v14.79ZM22.75,206.41v3.7h4.97v2.35h-4.97v3.92h5.61v2.41h-8.57v-14.79h8.57v2.41h-5.61ZM45.49,210.81c-.37.69-.96,1.25-1.76,1.67-.8.42-1.8.63-3.02.63h-2.48v5.67h-2.96v-14.77h5.44c1.14,0,2.12.2,2.92.59.8.4,1.41.94,1.81,1.63.4.69.6,1.47.6,2.35,0,.79-.19,1.53-.56,2.22ZM42.41,210.17c.4-.37.59-.9.59-1.58,0-1.44-.8-2.16-2.41-2.16h-2.35v4.3h2.35c.82,0,1.42-.19,1.82-.56ZM61.44,215.98h-5.88l-.97,2.81h-3.11l5.31-14.79h3.45l5.31,14.79h-3.13l-.97-2.81ZM60.63,213.61l-2.14-6.18-2.14,6.18h4.27ZM74.73,216.44h4.87v2.35h-7.83v-14.77h2.96v12.42ZM88.67,204.02v14.77h-2.96v-14.77h2.96ZM114.15,215.98h-5.88l-.97,2.81h-3.11l5.31-14.79h3.45l5.31,14.79h-3.13l-.97-2.81ZM113.35,213.61l-2.14-6.18-2.14,6.18h4.27ZM137.12,218.79h-2.96l-6.71-10.14v10.14h-2.96v-14.79h2.96l6.71,10.16v-10.16h2.96v14.79ZM153.53,204.93c1.18.61,2.09,1.47,2.73,2.59s.96,2.42.96,3.9-.32,2.78-.96,3.88-1.55,1.96-2.73,2.57c-1.18.61-2.54.91-4.1.91h-5.16v-14.77h5.16c1.55,0,2.92.3,4.1.91ZM152.92,215c.85-.85,1.27-2.04,1.27-3.58s-.42-2.74-1.27-3.61c-.85-.87-2.05-1.3-3.6-1.3h-2.09v9.76h2.09c1.55,0,2.75-.42,3.6-1.27ZM175.91,204.02v14.77h-2.96v-14.77h2.96ZM195.69,218.79h-2.96l-6.71-10.14v10.14h-2.96v-14.79h2.96l6.71,10.16v-10.16h2.96v14.79ZM212.11,204.93c1.18.61,2.09,1.47,2.73,2.59.64,1.12.96,2.42.96,3.9s-.32,2.78-.96,3.88c-.64,1.11-1.55,1.96-2.73,2.57-1.18.61-2.54.91-4.09.91h-5.16v-14.77h5.16c1.55,0,2.92.3,4.09.91ZM211.5,215c.85-.85,1.27-2.04,1.27-3.58s-.42-2.74-1.27-3.61c-.85-.87-2.05-1.3-3.6-1.3h-2.1v9.76h2.1c1.55,0,2.75-.42,3.6-1.27ZM225.22,204.02v14.77h-2.96v-14.77h2.96ZM241.43,215.98h-5.88l-.97,2.81h-3.11l5.31-14.79h3.45l5.31,14.79h-3.13l-.97-2.81ZM240.62,213.61l-2.14-6.18-2.14,6.18h4.27ZM264.39,218.79h-2.96l-6.71-10.14v10.14h-2.96v-14.79h2.96l6.71,10.16v-10.16h2.96v14.79ZM281.08,207.48c.66-1.15,1.55-2.05,2.69-2.69,1.14-.64,2.41-.96,3.82-.96,1.65,0,3.1.42,4.34,1.27,1.24.85,2.11,2.02,2.6,3.51h-3.41c-.34-.71-.81-1.23-1.43-1.59-.61-.35-1.32-.53-2.13-.53-.86,0-1.63.2-2.3.6-.67.4-1.19.97-1.57,1.7-.37.73-.56,1.59-.56,2.58s.19,1.83.56,2.57c.37.74.9,1.31,1.57,1.71.67.4,1.44.6,2.3.6.8,0,1.51-.18,2.13-.54.61-.36,1.09-.89,1.43-1.6h3.41c-.49,1.51-1.36,2.68-2.59,3.52-1.24.84-2.68,1.26-4.35,1.26-1.41,0-2.68-.32-3.82-.96-1.14-.64-2.03-1.53-2.69-2.68-.66-1.14-.98-2.44-.98-3.89s.33-2.75.98-3.9ZM304.22,204.02v9.14c0,1,.26,1.77.78,2.3.52.53,1.25.79,2.2.79s1.7-.26,2.22-.79c.52-.53.78-1.29.78-2.3v-9.14h2.98v9.12c0,1.26-.27,2.32-.82,3.18-.54.87-1.27,1.52-2.18,1.96s-1.92.66-3.04.66-2.1-.22-2.99-.66c-.9-.44-1.61-1.09-2.13-1.96-.52-.87-.78-1.93-.78-3.18v-9.12h2.96ZM323.25,204.02v14.77h-2.96v-14.77h2.96ZM332.71,218.41c-.83-.35-1.48-.86-1.96-1.52-.48-.66-.73-1.45-.74-2.35h3.17c.04.61.26,1.09.65,1.44.39.35.92.53,1.6.53s1.23-.17,1.63-.5c.39-.33.59-.76.59-1.3,0-.44-.13-.8-.4-1.08-.27-.28-.6-.5-1.01-.67-.4-.16-.96-.34-1.66-.54-.96-.28-1.74-.56-2.34-.84-.6-.28-1.12-.69-1.54-1.25-.43-.56-.65-1.3-.65-2.23,0-.88.22-1.64.66-2.29.44-.65,1.05-1.15,1.84-1.49.79-.35,1.69-.52,2.71-.52,1.52,0,2.76.37,3.71,1.11.95.74,1.48,1.77,1.58,3.1h-3.26c-.03-.51-.24-.93-.65-1.26-.4-.33-.93-.5-1.6-.5-.58,0-1.04.15-1.39.44-.35.3-.52.73-.52,1.29,0,.39.13.72.39.98s.59.47.97.64c.39.16.93.35,1.64.56.96.28,1.74.56,2.35.85s1.13.71,1.57,1.27.66,1.3.66,2.22c0,.79-.21,1.52-.61,2.2-.41.68-1.01,1.22-1.8,1.62s-1.73.6-2.81.6-1.96-.18-2.78-.53ZM350.48,204.02v14.77h-2.96v-14.77h2.96ZM370.27,218.79h-2.96l-6.71-10.14v10.14h-2.96v-14.79h2.96l6.71,10.16v-10.16h2.96v14.79ZM380.38,206.41v3.7h4.97v2.35h-4.97v3.92h5.61v2.41h-8.57v-14.79h8.57v2.41h-5.61Z"/>
      <path class="cls-5" d="M384.04,141.26c-.22-2.71-.04-2.73-3.15-2.73-9.13,0-18.26-.03-27.39.03-1.48.01-2.13-.39-2.64-1.87-1.46-4.23-3.05-8.44-4.84-12.54-4.39-10.07-11.12-18.29-20.05-24.67-1.38-.99-1.9-1.97-1.89-3.63.05-9.51-2.82-18.07-8.95-25.36-6-7.14-13.58-11.61-22.97-12.8-.8-.1-1.7-.81-2.21-1.5-1.92-2.59-3.46-5.49-5.57-7.91-9.62-11.05-21.64-15.49-36.13-12.45-1.32.28-2.25.24-3.44-.52-1.86-1.17-3.91-2.13-5.99-2.86-6.89-2.41-14.11-3.19-21.3-4.17-5.52-.75-10.78-2.39-15.43-5.39.36-2.35.7-4.56,1.06-6.91-1.09.22-1.81.37-2.52.51-.55,1.2-1.11,2.4-1.77,3.83-1.36-2.4-.34-6.2-3.55-7.75-3.11,1.59-2.4,5.27-3.92,7.73-.08-2.89-.65-3.57-4-4.29.24,1.11.41,2.09.66,3.06.97,3.83.88,3.73-2.57,5.51-7.04,3.64-14.83,3.83-22.39,5.1-6.22,1.05-12.26,2.55-17.75,5.84-.65.39-1.65.51-2.4.35-11.99-2.66-22.72-.19-32.12,7.75-3.96,3.35-7.09,7.4-9.78,11.83-.55.9-1.5,2.08-2.38,2.19-6.65.78-12.53,3.31-17.66,7.5-9.58,7.81-14.41,17.96-14.38,30.34,0,1.79-.43,2.9-1.99,4-2.59,1.81-5.03,3.9-7.23,6.16-2.67,2.74-5.11,5.71-7.62,8.62-1.11,2.53-2.76,4.75-3.97,7.23,0,.17,0,.33,0,.5-.05-.07-.1-.13-.15-.2-.07.15-.15.3-.22.46-.37.84-.73,1.68-1.1,2.51.01.08.02.16.04.24-.05,0-.1.02-.15.03-.46,1.01-.94,1.99-1.51,2.95.02.07.04.14.07.21-.08.03-.17.06-.25.09-.21.34-.42.68-.66,1.01.04,0,.07,0,.11,0-.72,2.39-1.55,4.59-2.03,6.86-.37,1.76-1.07,2.46-2.95,2.45-9.13-.09-18.26-.04-27.39-.04-3.67,0-3.69.06-3.45,3.71.08,1.26.58,1.73,1.78,1.63.66-.05,1.34,0,2,0,74,0,148,0,222,0,49.66,0,99.31,0,148.97.02,1.92,0,3.31-.02,3.1-2.62ZM70.86,89.66c1.79-9.71,6.55-17.6,14.89-23.08,4.31-2.83,8.99-4.8,14.26-4.94,1.51-.04,2.46-.49,3.25-2.03,3.7-7.1,8.73-13.03,15.87-16.94,7.37-4.04,15.17-4.69,23.22-2.7,1.68.41,2.94.39,4.52-.63,5.17-3.36,11.03-4.79,17.09-5.69,7.7-1.14,15.57-1.62,22.71-5.28.07.21.15.41.22.62-2.78,1.13-5.47,2.62-8.36,3.3-6.69,1.59-13.52,2.57-20.18,4.22-3.61.9-7.29,2.21-10.41,4.18-2.51,1.58-4.61,1.61-7.14.91-12.31-3.37-21.97,1.27-29.95,10.29-2.66,3-4.6,6.62-7.01,9.86-.52.69-1.58,1.29-2.44,1.37-12.85,1.24-22.01,7.59-26.81,19.63-1.37,3.44-1.72,7.28-2.56,10.93-.15.67-.46,1.3-.69,1.95-.18-.05-.36-.1-.54-.16,0-1.95-.3-3.95.05-5.83ZM55.42,113.86c.92,2.8-1.71,3.83-2.32,5.75q-1.56-1.18,2.32-5.75ZM43.76,136.71c2.12-5.36,2.87-11.36,8-15.68-2.45,5.65-4.72,10.9-7,16.16-.33-.16-.67-.32-1-.48ZM50.03,138.37c2.3-5.08,4.14-9.9,6.59-14.38,4.7-8.61,11.56-15.16,20.33-19.64,1.29-.66,1.71-1.44,1.28-2.99-3.12-11.19,2.48-23.85,11.96-29.54,4.3-2.58,8.93-3.94,13.9-3.68,2.04.11,2.91-.8,3.71-2.29,2.81-5.31,6.05-10.31,10.68-14.25,6.35-5.41,13.56-7.23,21.68-4.9.5.14,1.06.16,1.49.42,2.93,1.76,5.16.54,7.6-1.3,5.66-4.25,12.48-5.45,19.25-6.67,8.62-1.56,16.81-4.38,24.32-8.92,1.89-1.15,3.18-1.07,5.08.07,7.48,4.48,15.62,7.36,24.21,8.84,8.01,1.38,15.76,3.31,22.23,8.67.47.39,1.63.27,2.34.02,5.94-2.04,11.88-3.07,18.02-.75,3.57,1.35,6.61,3.47,9.2,6.18,3.84,4,7,8.51,9.46,13.51.32.66,1.49,1.3,2.26,1.29,11.63-.16,19.95,5.11,25.06,15.39,2.39,4.81,3.01,10.04,2.24,15.38-.06.44-.15.88-.26,1.31-.6,2.23-.17,3.52,2.21,4.83,12.07,6.59,19.6,17.03,24.13,29.81.39,1.1.59,2.27.92,3.61H50.03ZM345.96,137.14c-.42-.62-1.01-1.19-1.22-1.87-3.48-11.14-9.22-20.83-18.27-28.35-2.09-1.73-4.28-3.37-6.59-4.79-1.35-.83-1.71-1.6-1.57-3.18,1.18-12.97-3.33-23.45-14.13-30.93-4.47-3.09-9.59-4.53-15-4.81-1.12-.06-1.77-.29-2.38-1.39-3.3-6.01-7.36-11.54-12.9-15.57-6.91-5.02-14.7-7.19-23.29-4.92-1.28.34-2.55.8-3.86.96-.71.09-1.62-.15-2.21-.57-6.06-4.29-13.12-5.39-20.17-6.74-5.64-1.08-11.16-2.75-16.73-4.19-.46-.12-.83-.54-1.25-.83.03-.08.07-.16.1-.24,2.6.68,5.17,1.51,7.81,2.02,3.92.76,7.88,1.39,11.84,1.89,6.67.84,13.02,2.48,18.66,6.36.61.42,1.73.41,2.51.2,16.88-4.56,30.14,3.34,38.38,16.34.2.31.34.66.47,1,1.19,3.28,3.59,4.03,6.96,4.44,7.08.86,13.07,4.47,17.86,9.7,6.88,7.51,9.83,16.51,9.09,26.66-.11,1.55.48,2.26,1.62,3,8.4,5.41,14.9,12.62,19.49,21.43,2.2,4.22,3.64,8.83,5.4,13.27.09.23-.05.55-.61,1.11Z"/>
      <path class="cls-4" d="M191.67,11.59c.55.42,1.19.7,1.8,1.04.24-.66.63-1.3.7-1.97.22-2.08.31-4.18.46-6.27.47,0,.93,0,1.4,0,.1,2.05.14,4.11.33,6.15.07.7.54,1.35.83,2.03.59-.32,1.24-.58,1.77-.99.51-.4.9-.95,1.34-1.45,2.5-2.87,2.61-2.96.19-5.97-4.5-5.6-5.82-5.42-10.27-.19-2.65,3.11-2.53,3.26.26,6.32.4.44.73.95,1.19,1.3Z"/>
      <path class="cls-6" d="M200.65,16.44s0,0,0,0c-.02.02-.04.04-.05.06,0,0,.06-.06.06-.06Z"/>
      <path class="cls-3" d="M199.33,12.37c-1.48,1.53-1.56,3-.23,4.46.62-.16,1.08-.28,1.54-.39,1.39-1.56,2.72-3.18,4.2-4.65.93-.92,2.02-1.74,3.17-2.34,3.3-1.71,5.12-.83,6.19,2.64.26-1.19.51-2.49.07-3.49-1.05-2.38-4.12-3.11-7.15-2.14-3.32,1.06-5.51,3.54-7.81,5.91Z"/>
      <path class="cls-1" d="M182.6,9.37c.65.32,1.28.74,1.8,1.24,2.24,2.14,4.44,4.33,6.92,6.76,1.21-1.96,1.51-3.33.19-4.7-1.12-1.16-2.15-2.42-3.36-3.49-2.16-1.9-4.63-3.18-7.61-3.09-3.65.1-5.3,2.66-3.96,6.07,1.37-3.74,2.75-4.39,6.01-2.79Z"/>
      <path class="cls-8" d="M202.91,22.04c1.51-1.09,2.68-2.52,4.07-2.8,1.82-.36,2.2-1.48,2.64-2.78.28-.82.42-1.69.63-2.57,1.62.24,2.97.06,2.86-1.82-.09-1.6-1-2.49-2.75-2.45-3.07.07-4.49,2.21-5.83,4.52,1.58-.89,3.17-1.77,4.75-2.66.2.27.41.54.61.81-1.51,1.26-3.15,2.39-4.48,3.81-1.47,1.58-2.4,3.52-2.5,5.93Z"/>
      <path class="cls-8" d="M185.65,13.79c-.87-2.45-3-4.08-5.09-4.16-1.72-.07-2.89.51-3.03,2.4-.16,2.18,1.44,1.93,2.53,1.94.77,1.75,1.11,3.73,2.28,4.84,1.4,1.33,3.51,1.91,5.21,2.76.22-2.71-2.4-6.62-5.46-7.97-.54-.24-.91-.88-1.35-1.33.23-.25.46-.51.7-.76,1.34.73,2.68,1.45,4.21,2.28Z"/>
      <path class="cls-8" d="M319.46,120.54c-.68-.42-1.43-1.37-1.45-2.11-.12-3.27-1.69-5.66-4.27-7.38-6.39-4.26-13.57-5.28-21.02-4.45-3.04.34-5.7,1.83-6.64,5.08-.87,2.99.55,5.47,2.61,7.33,3.65,3.3,8.07,5.4,12.74,6.87,5.53,1.74,10.93,2.25,15.37-2.69,1.74,1.22,3.75,2.31,3.38,4.6-.36,2.25-2.31,3.2-4.47,3.74-3.12.79-6.04-.02-8.91-.98-4.33-1.44-8.51-3.52-12.93-4.48-11.84-2.58-23.7-2.29-35.36,1.26-1.88.57-3.76,1.37-5.41,2.41-1.32.84-1.77,2.34-.86,3.88.88,1.49,2.14,1.86,3.79,1.36,4.51-1.37,8.96-3,13.56-3.96,11.41-2.38,22.66-1.7,33.59,2.62,4.27,1.69,8.65,2.55,13.25,1.62,2.95-.6,5.4-2.06,6.78-4.77,1.99-3.89.58-7.3-3.75-9.97Z"/>
      <path class="cls-8" d="M239.32,74.73c1.4-4.16,2.96-8.37,5.17-12.13,4.02-6.83,13.13-7.57,18.01-1.84,2.8,3.29,2.33,7.6-1,9.21-2.2-2.3-3.36-2.84-5.08-2.39-1.94.51-3.5,2.55-3.37,4.4.15,2.1,1.98,3.97,4.38,4.35,6.71,1.06,11.57-3.43,12.25-9.56,1.11-10.02-9.35-16.73-17.87-15.34-7.92,1.3-12.64,6.54-15.41,13.7-1.92,4.95-3.22,10.15-5.37,14.99-4.67,10.54-12.34,18.44-22.13,24.51-4.2,2.61-9.78,2.99-12.65,8-.6-.75-.93-1.54-1.51-1.83-.94-.47-1.96-.95-2.98-1.15.68.84,1.54,1.5,1.76,2.32.53,1.96-.55,3.39-2.1,4.48-1.32.93-2.69,1.8-3.98,2.77-5.01,3.75-4.37,10.48,1.14,13.46,2.21,1.19,4.48,1.35,6.87,1.3,6.21-.13,11.73-5.68,7.5-12.71,1.67-1.13,2.07-2.8,1.65-4.66-.07-.3-.83-.45-1.35-.71q-.64,3.49-3.86,3.24c-.14-.01-.28,0-.42,0-1.95-3.18-1.11-6.14,2.54-7.01-.66-.85-1.18-1.51-1.66-2.14,8.8-2.13,16.9-6.24,23.86-12.4,7.1-6.29,12.54-13.74,15.61-22.86ZM198.97,119.21c.17.51.34,1.02.57,1.75-.69-.24-1.25-.44-1.96-.69-.39,1.1-.76,2.14-1.14,3.18-.3,0-.6,0-.9-.01-.26-2.38-.51-4.76-.78-7.26-2.44,1.89-5.04,3.61-7.27,5.71-2.39,2.25-2.07,5.81.35,8.03,3.4,3.13,8.69,3.4,12.42.66.39-.29.87-.46,1.31-.68.29-.89.68-1.76.86-2.67.47-2.28-.39-4.13-2.52-5.78,2.56.02,3.24,1.63,3.51,3.13.36,1.99.3,4.1-1.8,5.38-1.06,2.36-3.38,2.56-5.45,2.97-3.37.67-6.49-.14-9.02-2.47-3.47-3.2-2.75-7.97,1.54-11.03.65-.47,1.34-.88,2-1.35,2.71-1.91,2.99-2.31,4.44-5.59.42,2.04.84,4.08,1.24,6.04.87.23,1.72.46,2.58.68Z"/>
      <path class="cls-8" d="M191.69,109.64s.05,0,.08.01c-.02-.02-.03-.04-.05-.06-.01.02-.02.03-.03.04Z"/>
      <path class="cls-8" d="M189.11,111.59c.5.34.99.68,1.49,1.02.22-.78.45-1.56.68-2.34.02-.06.07-.11.42-.63-.25-.05-.5-.08-.75-.09-.59-.02-1.22,1.32-1.83,2.04Z"/>
      <path class="cls-8" d="M136.85,128.82c-6.61-2.52-13.41-4.07-20.51-4.3-10.19-.32-20.04.84-29.46,5.13-2.76,1.26-5.95,1.79-9,2.11-2.43.26-4.85-.51-6.36-2.84-1.08-1.66-.28-3.14.87-4.15.67-.6,1.42-2.26,2.93-1.05,3.1,2.5,6.8,2.84,10.34,1.92,6.84-1.78,13.56-4.05,20.32-6.16.68-.21,1.25-.78,1.86-1.19-.04-.21-.08-.42-.13-.62-.73-.12-1.5-.45-2.19-.32-1.81.34-3.59.86-5.38,1.34-2.99.81-5.97,1.68-8.99,2.41-.51.12-1.14-.3-1.72-.47.38-.44.69-1.15,1.16-1.28,3.78-1.01,7.6-1.86,11.37-2.88,1.68-.46,3.29-1.2,4.93-1.81-.06-.34-.12-.69-.18-1.03-.86-.12-1.77-.46-2.58-.31-1.96.36-3.88.93-5.81,1.45-2.92.78-5.82,1.65-8.76,2.34-.49.12-1.14-.46-1.72-.71.41-.39.75-1.01,1.23-1.13,3.79-1.01,7.61-1.86,11.39-2.9,1.57-.43,3.05-1.19,4.65-1.83-1.14-2.11-2.56-1.42-3.76-1.11-4.43,1.14-8.83,2.42-13.26,3.54-.61.15-1.38-.31-2.08-.49.56-.42,1.07-1.07,1.7-1.24,3.92-1.07,7.89-1.98,11.81-3.05,1.14-.31,2.19-.97,3.28-1.46-.03-.3-.07-.6-.1-.9-.9-.07-1.84-.36-2.68-.18-6.43,1.37-12.92,2.57-19.24,4.35-3.79,1.07-7.39,3.23-7.99,7.67-.26,1.93-1.05,2.96-2.42,4.01-4.66,3.58-4.14,9.51,1.07,12.25,4.64,2.44,9.4,2.02,14.2.53,3.72-1.15,7.41-2.49,11.2-3.36,12.92-2.96,25.44-1.1,37.68,3.52,2.28.86,3.92.5,4.71-1.24.76-1.68-.26-3.76-2.39-4.57Z"/>
      <path class="cls-8" d="M132.6,75.1c2.03-.27,3.58-1.79,3.82-3.71.4-3.11-1.73-4.88-4.93-4.64-.53-1.19-.97-2.17-1.41-3.15-.72.32-2.09.78-2.05.95.22,1.08.75,2.09,1.33,3.51-.01.01-.45.48-.88.93-2.7-2.21-3.05-5.71-.94-8.36,4.33-5.44,12.12-5.26,16.63.34,3.12,3.89,3.96,8.63,5.25,13.18-.02.01-.04.02-.05.03.02.06.03.13.05.2.13.26.22.55.26.85.03.22.08.44.13.66.07.09.09.2.08.33.14.54.33,1.07.52,1.6.54.17.59.54.35.97.07.2.14.41.2.62.08.27.13.55.15.82.37.44.71.86.97,1.32.73,1.28,1.24,2.69,1.98,3.96,5.79,9.94,13.88,17.44,24.25,22.41,2.87,1.38,5.93,2.37,8.9,3.54.09-.21.19-.42.28-.63-.52-.32-1.01-.7-1.56-.97-7.23-3.46-13.75-7.85-19.13-13.88-7.25-8.11-10.95-17.8-13.29-28.25-1.66-7.42-5.57-13.35-13.27-15.76-7.64-2.39-16.87,1.32-19.08,10.05-1.61,6.38,2.78,14.25,11.45,13.08Z"/>
      <path class="cls-8" d="M195.4,105.7c1.6-2.15,3.07-3.88,4.26-5.78,2.54-4.04,4.2-8.39,3.02-13.23-.87-3.57-2.4-7.02-1.17-10.92-6.89,3.32-12.58,7.68-13.89,15.63-.87,5.23,1.29,9.66,5,13.35-1.14-5.17-1.96-10.29.16-15.45-1.07,5.63-.27,10.92,2.62,16.39Z"/>
      <path class="cls-8" d="M179.03,96.29c2.21,4.51,6.32,6.92,11.22,8.08-3.1-4.11-7.46-7.34-8.69-13.07,1.74,2.62,3.27,4.94,4.81,7.26.23-.11.46-.22.69-.32-1.13-4.18-1.07-8.21,1.05-12.07.16-.3-.24-1.11-.6-1.45-2.41-2.28-4.88-4.49-7.42-6.82-2.89,5.69-4.19,11.99-1.05,18.4Z"/>
      <path class="cls-8" d="M221.19,60.29c-2.15,4.17-4.47,8.26-6.76,12.36-1.27,2.27-.97,4.16.89,5.18,1.92,1.06,3.82.32,5.08-1.95,2.17-3.92,4.29-7.87,6.6-11.71.46-.77,1.6-1.18,2.49-1.63.88-.45,1.83-.76,2.75-1.13-.8-.74-1.55-2.05-2.4-2.11-1.89-.13-2.53-1.14-2.88-2.93-1.75,1.59-2.57.04-3.76-.7-.77-.48-1.9-.37-2.87-.53.18.88.38,1.76.54,2.65.15.84.64,1.89.32,2.51Z"/>
      <path class="cls-8" d="M160.65,62.54c1.92-.39,2.69.77,3.49,2.06,1.74,2.82,3.45,5.65,5.22,8.45,1.34,2.12,2.96,2.72,4.52,1.77,1.43-.86,1.78-2.79.75-4.76-1.47-2.81-3-5.6-4.53-8.37-.86-1.56-1.61-3.03.21-4.52.35-.29.52-1.44.27-1.7-.43-.44-1.29-.69-1.92-.62-.58.07-1.07.74-1.65,1.04-.99.5-2.01.91-3.03,1.36-.14-.2-.27-.4-.41-.61-.28.75-.55,1.5-.82,2.22-.94.23-1.98.27-2.76.73-.63.38-.97,1.26-1.43,1.93.7.37,1.49,1.15,2.09,1.03Z"/>
      <path class="cls-8" d="M210.97,91.46c.71-4.91.57-9.68-1.9-13.89-2.1,2.09-3.99,3.97-5.78,5.75.33,1.88.84,3.75.94,5.64.11,1.88-.19,3.78-.33,5.9.78-1.01,1.45-1.9,2.13-2.78.19.14.37.28.56.42-2.43,3.39-4.85,6.77-7.28,10.16,6.41-1.63,10.94-6.31,11.65-11.2Z"/>
      <path class="cls-8" d="M200.58,50.65c-4.32-.08-8.35,5.81-6.71,9.88.23.56.93,1.13,1.53,1.32,4.42,1.41,8.6-1.65,8.69-6.3.05-2.8-1.43-4.87-3.51-4.91Z"/>
      <path class="cls-8" d="M152.12,128.48c.68-.55,1.19-.87,1.58-1.28,1.45-1.54,1.49-3.62.12-4.96-1.45-1.43-4.13-1.45-5.39.14-1.29,1.64-1.88,3.48-.81,5.57,1.4,2.72,4.64,4.65,7.61,4.4,4.22-.37,9.29-3.62,9.99-7.09-3.84,3.05-7.58,6.33-13.11,3.23Z"/>
      <path class="cls-8" d="M240.52,121.46c-1.76-.91-3.91-.11-4.79,1.83-1.07,2.34.23,3.85,2.19,5.23-5.61,3.07-9.29-.36-13.19-3.19,2.08,3.71,4.02,5.3,7.71,6.54,4.04,1.36,8.28-.36,10.12-4.09,1.07-2.17.09-5.23-2.03-6.33Z"/>
      <path class="cls-8" d="M252.01,83.11c-2.3,5.02,1.61,14.62,6.78,16.66,2.45-5.44-2.27-15.37-6.78-16.66Z"/>
      <path class="cls-8" d="M261.45,99.85c5.16-2.19,9.22-12.67,6.76-16.65-5.24,1.87-9.77,13.04-6.76,16.65Z"/>
      <path class="cls-8" d="M133.45,104.01c3.45,5.57,11.54,8.77,16.81,6.76-.8-4.46-11.99-9.58-16.81-6.76Z"/>
      <path class="cls-8" d="M122.39,83.1c-2.35,4.99,1.89,14.89,7,16.63,2.34-4.19-1.72-14.42-7-16.63Z"/>
      <path class="cls-8" d="M110.88,94.84c2.47,5.28,10.99,8.69,16.88,6.76-2.58-5.45-12.05-9.25-16.88-6.76Z"/>
      <path class="cls-8" d="M279.66,94.83c-4.76-2.54-15.65,1.99-16.59,6.9,5.82,2.19,15.33-2.7,16.59-6.9Z"/>
      <path class="cls-8" d="M263.7,118.74c1.05,1.53,2.62,2.7,3.95,4.03.22-.18.43-.37.65-.55.96-6.14-.9-11.32-5.39-15.56-.46-.44-1.27-.51-1.92-.75-.19.6-.49,1.19-.55,1.81-.38,4.1.99,7.75,3.25,11.02Z"/>
      <path class="cls-8" d="M127.85,104.19c-4.3-2.74-13.89,1.21-16.9,6.84,5.72,1.9,13.17-1.07,16.9-6.84Z"/>
      <path class="cls-8" d="M279.7,111.12c-2.58-4.9-10.16-8.62-15.27-7.8-1.68.27-1.89,1.17-.82,2.22,1.39,1.38,2.87,2.78,4.55,3.76,3.5,2.04,7.27,3.08,11.55,1.82Z"/>
      <path class="cls-8" d="M132,99.78c5.32-2.79,8.58-11.02,6.61-16.69-5.16,1.77-9.47,12.65-6.61,16.69Z"/>
      <path class="cls-8" d="M131.64,106c-1.9,5.62,3.14,15.44,7.37,16.21,2.15-5.41-2.82-16.32-7.37-16.21Z"/>
      <path class="cls-8" d="M123.14,122.36c4.44-2.32,8.15-10.75,6.86-15.54-.42-1.54-1.34-1.29-2.02-.37-1.77,2.39-3.79,4.72-4.97,7.39-1.16,2.61-1.63,5.62-.47,8.52.32,0,.49.05.6,0Z"/>
      <path class="cls-8" d="M240.46,94.35c1.45,5,10.18,8.84,16.65,7.23-1.6-4.82-11.55-9.48-16.65-7.23Z"/>
      <path class="cls-8" d="M240.48,110.96c6.52,1.67,14.58-2.44,16.59-6.98-4.89-2.6-16.09,2.19-16.59,6.98Z"/>
      <path class="cls-8" d="M258.85,105.84c-4.93.94-9.73,11.95-7.15,16.39,5.08-1.88,8.71-10.22,7.15-16.39Z"/>
      <path class="cls-8" d="M150.06,94.27c-5.89-2.13-15.57,3.16-16.51,7.48,7.36,1.04,15.55-2.71,16.51-7.48Z"/>
      <path class="cls-8" d="M198.76,64.72c-1.28-1.57-5.32-2.15-6.52-1.22-1.78,1.38-1.54,3.33-1.1,5.06.49,1.91,2.32,2.01,4.32,2.02.33-.04,1.04,0,1.64-.23,1.31-.51,2.56-1.15,3.83-1.74-.71-1.31-1.25-2.75-2.17-3.89Z"/>
      <path class="cls-8" d="M97.3,103.58c.21.42.69.7,1.05,1.04.16-.11.32-.23.48-.34-.16-.77-.28-1.55-.5-2.3-1.35-4.67-.39-8.83,3.04-12.22,3.43-3.39,7.58-4.35,12.24-2.92.98.3,1.99.48,2.99.71.07-.2.13-.41.2-.61-.11-.19-.17-.42-.33-.55-.28-.23-.6-.41-.92-.57-3.78-1.79-7.5-1.57-11.33,0-6.55,2.67-10.08,11.5-6.92,17.77Z"/>
      <path class="cls-8" d="M273.53,87.54c.88-.19,1.79-.29,2.63-.57,4.92-1.68,9.3-.64,12.81,3.04,3.36,3.53,4.37,7.79,2.68,12.54-.2.57.02,1.28.04,1.92.48-.45.98-.88,1.43-1.36.14-.14.15-.41.21-.63,2.56-8.84-3.4-17.37-12.83-17.96-2.69-.17-5.13.6-7.24,2.21.09.26.18.53.27.79Z"/>
      <path class="cls-8" d="M197.23,44.4c.31,1.13.9,2.23.95,3.37.08,1.74.89,1.92,2.41,1.97,1.68.06,3.34.65,5,1.06.77.19,1.51.49,2.26.75-1.64-4.77-4.44-7.95-9.23-8.8-.51-.09-1.15.03-1.57.29-.16.1.06.91.19,1.37Z"/>
      <path class="cls-8" d="M182.24,53.56c.5,1.17,1.32,1.78,2.73,1.72,2.77-.12,3.26-2.43,4.18-4.24,1.15-2.27.04-3.93-2.49-3.98-2.63-.06-5.46,4.07-4.42,6.5Z"/>
      <path class="cls-8" d="M187,57.17c-1.32,1.83-.35,3.72.5,5.42.37.74,1.59,1.82,1.9,1.67,1.07-.51,2.53-1.39,2.71-2.34.41-2.11.13-4.36.13-6.64-2.22-.3-4.04.22-5.24,1.88Z"/>
      <path class="cls-8" d="M289.12,102.76c.78-.29,1.11-.59,1.29-.96,1.64-3.45.2-8.63-3.21-11.6-3.13-2.73-8.65-3.5-11.62-1.57-.31.2-.38.76-.71,1.47,1.05-.14,1.72-.13,2.32-.33,7.58-2.58,13.85,4.62,11.84,11.24-.16.53.06,1.18.1,1.77Z"/>
      <path class="cls-8" d="M112.53,89.62c.75.21,1.52.34,2.28.5.12-.19.25-.38.37-.57-.29-.35-.5-.83-.87-1.03-3.35-1.75-8.39-1.01-11.42,1.62-3.11,2.7-4.59,7.45-3.35,11,.2.58.84,1,1.27,1.49.08-.63.35-1.31.21-1.88-1.72-7.02,4.54-13.09,11.51-11.14Z"/>
      <path class="cls-8" d="M193.52,46.32c-3.47,1.22-2.05,5.18-4.63,7.2,3.99.51,6.98-1.09,7.88-4.14.31-1.06-.23-2.36-.38-3.56-.96.16-1.97.19-2.87.5Z"/>
      <path class="cls-8" d="M159.67,58.28c1.13.9,2.51-.17,3.07-1.77.12-.34,1.2-.7,1.59-.52,1.64.78,2.12-.65,2.66-1.46.21-.31-.5-1.54-1.08-1.99-.77-.61-1.82-.87-3.25-1.5-1.18.99-2.9,1.8-3.51,3.12-.52,1.12-.3,3.48.52,4.13Z"/>
      <path class="cls-8" d="M226.6,55.9c.3-.16,1.16.57,1.65,1.01.28.25.26.86.55,1.1,1.33,1.13,2.73.58,3.06-1.16.39-2.06-.72-4.19-2.65-5.07-1.99-.91-4-.12-6.06,2.47,1.14.57,1.36,2.72,3.45,1.64Z"/>
      <path class="cls-8" d="M204.91,60.14c-1.27.76-2.21,2.1-3.49,2.83-1.74.99-1.38,1.99-.45,3.18.58.75,1.2,1.46,2.42,2.95,1.43-2.6,2.65-4.69,3.73-6.86.29-.58.18-1.35.26-2.04-.84-.05-1.88-.43-2.48-.07Z"/>
      <path class="cls-8" d="M184.48,58.26c-.3-.71-1.11-1.22-1.69-1.81-.43.63-1.34,1.4-1.21,1.87.61,2.14,1.3,4.32,2.37,6.25,1.13,2.04,2.76,3.76,5.31,4.04.26-.2.53-.4.79-.6-.58-.82-1.14-1.66-1.75-2.47-1.08-1.43-2.33-2.75-3.23-4.29-.48-.83-.21-2.08-.6-3Z"/>
      <path class="cls-8" d="M89.93,91.16c1.79,1.18,3.85,1.24,6.69-.09-2.01-1.48-3.45-2.8-5.14-3.63-.58-.28-2.22.46-2.56,1.15-.29.58.34,2.13,1.01,2.57Z"/>
      <path class="cls-8" d="M275.96,83.7c1.61-2.69,1.77-4.79.56-6.74-.4-.65-2.01-1.33-2.39-1.06-.71.51-1.47,1.91-1.22,2.57.64,1.7,1.82,3.2,3.05,5.22Z"/>
      <path class="cls-8" d="M300.03,94c-1.64.71-3.12,1.81-4.67,2.74.12.44.24.88.36,1.33,1.82,0,3.66.13,5.46-.04,1.3-.13,2.23-1.06,1.79-2.47-.42-1.32-1.6-2.13-2.94-1.55Z"/>
      <path class="cls-8" d="M291.13,79.09c0-.85-.56-2.2-1.18-2.41-.68-.23-2.24.37-2.5,1-.7,1.67-.91,3.54-1.42,5.8,2.95-.63,5.08-2.57,5.1-4.38Z"/>
      <path class="cls-8" d="M98.74,86.46c-.08-2.52-1.36-4.18-3.18-5.33-.57-.36-2.08-.19-2.43.28-.46.62-.61,2.07-.18,2.65,1.33,1.79,3.3,2.54,5.79,2.41Z"/>
      <path class="cls-8" d="M291.55,86.46c2.21.2,4.15-.57,5.53-2.29.46-.57.48-2.08.03-2.61-.44-.52-2.12-.79-2.54-.4-1.42,1.33-2.52,2.99-3.74,4.53.24.26.48.51.72.77Z"/>
      <path class="cls-8" d="M300.09,91.21c.71-.45,1.43-1.8,1.25-2.53-.33-1.38-1.72-1.97-3.01-1.21-1.53.9-2.85,2.13-4.72,3.58,2.75,1.37,4.73,1.27,6.48.16Z"/>
      <path class="cls-8" d="M88.66,97.87c1.92.29,3.9.11,5.86.11.1-.44.21-.89.31-1.33-1.73-.91-3.39-2.03-5.23-2.63-.57-.19-1.96.87-2.29,1.65-.21.49.75,2.11,1.34,2.2Z"/>
      <path class="cls-8" d="M101.44,82.62c.4.39,1.29.73,1.71.54.43-.19.56-1.06.88-1.77-.43-1.24-.62-2.65-1.36-3.66-.5-.68-1.88-1.23-2.68-1.04-1.37.32-1.61,1.74-.98,2.88.61,1.13,1.52,2.13,2.44,3.04Z"/>
      <path class="cls-8" d="M89.16,104.53c2.33.36,4.01-.99,5.43-2.64,0-.32-.02-.64-.03-.96-1.91-.13-3.83-.45-5.71-.27-.66.06-1.65,1.38-1.64,2.11.01.62,1.18,1.64,1.95,1.76Z"/>
      <path class="cls-8" d="M149.25,85.66c-1.37,1.16-2.4,2.7-3.57,4.09.22.25.44.5.67.76,2.04.23,3.96-.29,5.29-1.87.53-.63.25-1.93.34-2.92-.93-.04-2.2-.49-2.72-.05Z"/>
      <path class="cls-8" d="M282.65,81.39c.68-1.27,1.1-2.68,1.82-4.49-.8-.76-1.47-1.91-2.35-2.11-1.5-.34-2.33.98-2.28,2.29.05,1.43.47,2.89.97,4.24.38,1.01,1.35,1.01,1.84.08Z"/>
      <path class="cls-8" d="M117.3,78.2c.1-.75-.82-2-1.58-2.36-.47-.22-1.86.63-2.26,1.33-1.09,1.9-.78,3.91.28,5.96,2-1.13,3.29-2.79,3.57-4.93Z"/>
      <path class="cls-8" d="M301.52,100.7c-1.96-.4-4.09-.74-6.06,1.01,1.51,1.93,3.22,3.13,5.53,2.82.75-.1,1.98-1.01,1.97-1.52-.02-.82-.78-2.18-1.43-2.31Z"/>
      <path class="cls-8" d="M238.4,99.86c-.12-2.32-.89-4.3-2.93-5.52-.51-.3-1.67-.19-2.07.2-.51.5-.9,1.58-.72,2.23.53,1.86,3.28,3.27,5.71,3.08Z"/>
      <path class="cls-8" d="M155.24,94.21c-1.83.81-3.07,3.48-2.83,5.68,2.34.14,4.95-1.25,5.41-3.14.17-.7-.16-1.74-.63-2.32-.31-.38-1.41-.47-1.95-.23Z"/>
      <path class="cls-8" d="M172.42,108.77c-1.23-.83-2.34.31-2.74,1.4-.56,1.53-.72,3.21-1.16,5.36,2.96-.56,4.33-2,4.94-3.88.26-.81-.32-2.41-1.03-2.89Z"/>
      <path class="cls-8" d="M164.27,102.17c-.72-.28-2.3.05-2.6.6-.9,1.64-1.37,3.52-2,5.31.3.15.59.3.89.45,1.94-.59,3.39-1.79,4.44-3.59.72-1.24.37-2.35-.73-2.78Z"/>
      <path class="cls-8" d="M204.92,56.46c.06.73.38,1.94.8,2.04,1.14.28,2.28.07,2.77-1.46.9-2.82-.07-4.4-3.6-5.32,0,1.69-.08,3.22.04,4.74Z"/>
      <path class="cls-8" d="M181.93,113.21c-.78-.14-1.98.38-2.55,1.02-1.06,1.19-.59,4.57.6,5.99,1.73-1.15,3.08-2.63,3.12-4.78.02-.78-.64-2.13-1.17-2.22Z"/>
      <path class="cls-8" d="M108.47,82.06c.44-.63.97-1.22,1.29-1.91.33-.72.46-1.54.82-2.79-.41-.66-.83-1.68-1.57-2.34-.36-.32-1.73-.21-1.94.13-.52.87-.79,1.96-.88,2.99-.06.68.25,1.48.62,2.08.43.7,1.1,1.24,1.67,1.85Z"/>
      <path class="cls-8" d="M218.11,108.77c-.62.27-1.22,1.35-1.23,2.09-.04,1.93,2.43,4.14,5.43,4.43-.73-2.24-1.19-4.11-2-5.82-.24-.5-1.64-.93-2.2-.69Z"/>
      <path class="cls-8" d="M211.38,114.6c-.44-1.16-1.29-2.14-2.48-1.41-.72.44-1.47,1.9-1.25,2.59.55,1.65,1.67,3.12,2.79,5.07,1.6-2.49,1.65-4.34.94-6.24Z"/>
      <path class="cls-8" d="M226.48,102.09c-.57.29-1,1.61-.86,2.36.43,2.36,2.5,3.15,4.61,4.33.73-2.59.1-4.51-1.3-6.07-.5-.55-1.86-.92-2.45-.62Z"/>
      <path class="cls-8" d="M187.88,45.86c.96.3,2.06,1.05,2.85.8,1.35-.42,2.54-1.41,3.72-2.27.4-.29.86-1.05.74-1.37-.19-.48-.88-.77-1.33-1.13-1.78.68-3.43,1.15-4.9,1.93-.56.3-.73,1.33-1.07,2.03Z"/>
      <path class="cls-8" d="M259.26,65.09c.59.65,1.13,1.74,1.8,1.84.65.09,1.45-.84,2.73-1.67-1.23-.83-1.94-1.7-2.66-1.7-.62,0-1.24.98-1.86,1.53Z"/>
      <path class="cls-8" d="M210.1,63.31c-.68.13-1.51,1.17-1.62,1.91-.07.46,1.1,1.54,1.7,1.53.7,0,1.38-.91,2.55-1.77-1.23-.83-2.03-1.78-2.63-1.67Z"/>
      <path class="cls-8" d="M181.51,64.89c-.05-.61-1-1.15-1.55-1.72-.6.63-1.61,1.23-1.67,1.91-.06.64.89,1.37,1.8,2.62.73-1.35,1.47-2.11,1.42-2.82Z"/>
      <path class="cls-8" d="M200.86,74.38c.71.08,1.51-.69,2.27-1.08.02-.27.03-.54.05-.81-.7-.48-1.39-1.32-2.09-1.32-.6,0-1.68.93-1.69,1.47-.02.61.87,1.68,1.46,1.75Z"/>
      <path class="cls-8" d="M189.19,41.71c.56-.66,1.47-1.27,1.58-2,.08-.53-.9-1.21-1.77-2.27-.75,1.12-1.65,1.89-1.53,2.43.15.71,1.11,1.24,1.72,1.85Z"/>
      <path class="cls-8" d="M204.48,69.56c.54.6,1.02,1.63,1.62,1.7.71.08,1.51-.67,2.92-1.39-1.28-.93-1.98-1.82-2.69-1.83-.61-.01-1.23.98-1.85,1.52Z"/>
      <path class="cls-8" d="M211.9,47.43c-.02-.57-1.18-1.63-1.65-1.54-.71.14-1.71,1.05-1.77,1.71-.06.63.93,1.36,1.83,2.53.78-1.24,1.61-1.98,1.59-2.7Z"/>
      <path class="cls-8" d="M179.9,49.28c.65.03,1.33-.86,2.58-1.76-1.27-.85-2.05-1.75-2.6-1.63-.67.15-1.53,1.12-1.59,1.81-.05.51,1.01,1.56,1.61,1.59Z"/>
      <path class="cls-8" d="M187.48,72.93c-.07.54.88,1.22,1.75,2.31.76-1.21,1.57-1.94,1.55-2.64-.02-.53-1.21-1.53-1.68-1.42-.68.15-1.53,1.07-1.62,1.75Z"/>
      <path class="cls-8" d="M201.02,41.59c.72-.02,1.43-.88,2.61-1.72-1.15-.8-1.9-1.71-2.46-1.61-.7.13-1.58,1.02-1.74,1.73-.1.43,1.03,1.61,1.59,1.6Z"/>
      <path class="cls-8" d="M177.87,55.07c.59-.63,1.54-1.2,1.65-1.9.09-.56-.85-1.28-1.69-2.41-.76,1.13-1.62,1.84-1.54,2.41.11.7,1.01,1.27,1.57,1.9Z"/>
      <path class="cls-8" d="M210.72,53.37c-.09.45.98,1.58,1.53,1.58.67,0,1.35-.86,2.48-1.67-1.11-.84-1.86-1.79-2.35-1.67-.69.17-1.53,1.06-1.66,1.76Z"/>
      <path class="cls-8" d="M212.45,57.76c-1.16-.39-1.9.49-1.79,1.56.07.71.79,1.35,1.56,2.57.85-1.17,1.68-1.81,1.67-2.45,0-.58-.81-1.46-1.44-1.68Z"/>
      <path class="cls-8" d="M206.32,44.47c.62,0,1.75-.95,1.73-1.45-.03-.73-.89-1.42-1.73-2.59-.82,1.17-1.67,1.86-1.71,2.59-.02.49,1.1,1.45,1.71,1.45Z"/>
      <path class="cls-8" d="M185.49,42.86c-.03-.59-1.01-1.14-1.58-1.7-.6.6-1.51,1.13-1.69,1.84-.12.49.76,1.24,1.59,2.44.86-1.24,1.71-1.93,1.68-2.58Z"/>
      <path class="cls-8" d="M182.23,69.49c.08.68.91,1.58,1.59,1.76.43.12,1.64-.87,1.66-1.4.03-.7-.75-1.44-1.5-2.67-.87,1.09-1.82,1.76-1.75,2.3Z"/>
      <path class="cls-8" d="M179.52,59.51c-.09-.67-.97-1.49-1.67-1.71-.37-.12-1.54.9-1.55,1.43-.02.7.74,1.42,1.47,2.65.88-1.12,1.83-1.82,1.76-2.37Z"/>
      <path class="cls-8" d="M195.2,40.37c.62,0,1.24-.81,2.31-1.6-1.11-.79-1.89-1.74-2.39-1.61-.67.18-1.35,1.12-1.54,1.86-.08.32,1.04,1.34,1.62,1.34Z"/>
      <path class="cls-8" d="M195.08,72.16c-.64.16-1.4,1.14-1.49,1.84-.06.43,1.05,1.44,1.61,1.42.64-.02,1.25-.89,2.3-1.72-1.12-.76-1.89-1.67-2.42-1.54Z"/>
      <path class="cls-8" d="M130.26,61.46c-.04.57.78,1.18,1.46,2.08.71-.92,1.56-1.54,1.53-2.12-.03-.54-.97-1.42-1.53-1.44-.51-.01-1.42.92-1.45,1.48Z"/>
      <path class="cls-8" d="M257.59,61.33c.08.62.79,1.54,1.31,1.6.53.06,1.16-.78,2.16-1.53-.99-.69-1.58-1.41-2.17-1.42-.45,0-1.35.93-1.29,1.35Z"/>
      <path class="cls-8" d="M134.78,59.85c-.01.44.69,1.31,1.01,1.27.59-.06,1.12-.64,2.05-1.26-.91-.62-1.43-1.22-2.01-1.28-.33-.03-1.04.81-1.05,1.27Z"/>
      <path class="cls-8" d="M256.65,60c-.85-.68-1.33-1.32-1.91-1.42-.33-.06-1.1.75-1.13,1.21-.04.45.62,1.34.96,1.34.57,0,1.13-.57,2.08-1.13Z"/>
      <path class="cls-8" d="M141.43,61.26c-.37-.37-.71-1.01-1.1-1.05-.5-.05-1.05.39-2.09.84.92.69,1.41,1.34,1.85,1.31.47-.03.89-.71,1.34-1.1Z"/>
      <path class="cls-8" d="M232.55,109.92c-.5.05-1.28.55-1.34.96-.07.42.56.96,1.1,1.77.6-.75,1.18-1.17,1.26-1.68.05-.31-.68-1.08-1.01-1.05Z"/>
      <path class="cls-8" d="M250.36,60.22c-.39.03-.98.71-.99,1.12,0,.42.58.85,1.19,1.65.5-.86,1.01-1.37,1.02-1.9,0-.31-.81-.9-1.21-.87Z"/>
      <path class="cls-8" d="M177.57,123.39c0,.39.6.77.93,1.15.42-.4,1.14-.78,1.18-1.22.04-.46-.56-.98-1.17-1.91-.48.95-.94,1.47-.94,1.97Z"/>
      <path class="cls-8" d="M210.99,123.43c.01.38.65.75,1.01,1.12.4-.42,1.08-.81,1.11-1.26.03-.46-.57-.97-1.18-1.88-.49.98-.96,1.51-.94,2.01Z"/>
      <rect class="cls-2" x="2.72" y="227.21" width="384.67" height="5.83"/>
    </g>
  </g>
</svg>